<svg width="172" height="73" viewBox="0 0 172 73" fill="none" xmlns="http://www.w3.org/2000/svg">
<g clip-path="url(#clip0_298_4495)">
<path d="M99.729 0H1.92271C0.860828 0 0 0.851026 0 1.90082V25.1876C0 26.2374 0.860828 27.0885 1.92271 27.0885H99.729C100.791 27.0885 101.652 26.2374 101.652 25.1876V1.90082C101.652 0.851026 100.791 0 99.729 0Z" fill="#545776"/>
<path d="M10.6937 63.503C9.4051 63.5034 8.11796 63.4178 6.84105 63.2467C5.65141 63.1044 4.48787 62.7976 3.38449 62.3354C2.41905 61.9468 1.57095 61.3192 0.921693 60.5129C0.271408 59.6393 -0.0541533 58.5706 -5.86715e-05 57.4873V31.2603H6.72584V43.8398L5.43683 41.7041C6.01781 41.0455 6.74145 40.5247 7.55397 40.1806C8.39193 39.8045 9.27531 39.5366 10.1824 39.3832C10.9114 39.2449 11.651 39.1686 12.3932 39.1554C15.8353 39.1554 18.4565 40.1806 20.2568 42.2309C22.0571 44.2812 22.9549 47.2808 22.9501 51.2295C23.0026 53.2122 22.6902 55.1878 22.0283 57.0601C21.5013 58.5131 20.6151 59.8126 19.4503 60.8404C18.3227 61.7907 17.0013 62.49 15.5761 62.8908C13.9863 63.3233 12.3423 63.5294 10.6937 63.503ZM10.6001 57.8504C11.7273 57.9206 12.8503 57.6579 13.8262 57.0957C14.6264 56.562 15.2323 55.7884 15.5545 54.8888C15.9222 53.8483 16.1002 52.7516 16.0802 51.6496C16.1273 50.2344 15.8823 48.8246 15.36 47.5062C15.0108 46.5796 14.3695 45.7884 13.5309 45.2494C12.6899 44.7726 11.7352 44.5268 10.7657 44.5375C10.0828 44.5464 9.40252 44.6228 8.73496 44.7653C8.04128 44.8989 7.37306 45.1391 6.75464 45.4772V55.679C6.74067 55.9155 6.77919 56.152 6.86752 56.3722C6.95584 56.5923 7.09183 56.7907 7.26592 56.9533C7.67833 57.2961 8.1753 57.5245 8.70616 57.6154C9.32615 57.7687 9.96121 57.8546 10.6001 57.8717V57.8504Z" fill="#31363F"/>
<path d="M38.202 63.5029C34.2702 63.5029 31.3129 62.4611 29.3302 60.3776C27.3475 58.294 26.3585 55.2352 26.3633 51.201C26.3633 46.8583 27.3691 43.7353 29.3806 41.8322C31.3921 39.929 34.3326 38.9797 38.202 38.9845C40.4636 38.9117 42.7114 39.3576 44.7695 40.2873C46.5362 41.1283 47.9627 42.536 48.8166 44.2811C49.8035 46.4558 50.2692 48.8263 50.1776 51.2081C50.1776 55.2423 49.1478 58.3012 47.0883 60.3847C45.0287 62.4683 42.0667 63.5077 38.202 63.5029ZM38.202 58.0781C39.2094 58.1165 40.203 57.8373 41.0393 57.2808C41.8301 56.6932 42.4246 55.8848 42.746 54.9599C43.1597 53.7501 43.3547 52.4777 43.3221 51.201C43.3719 49.8324 43.1768 48.4659 42.746 47.1644C42.4341 46.2779 41.824 45.5241 41.0177 45.0287C40.1534 44.5701 39.1824 44.3443 38.202 44.3737C37.1928 44.3345 36.1933 44.5815 35.3216 45.0856C34.5416 45.5891 33.9615 46.3436 33.6797 47.2214C33.2842 48.5127 33.1066 49.8597 33.154 51.2081C33.154 53.5147 33.5597 55.2375 34.371 56.3766C34.8081 56.9628 35.3895 57.4288 36.06 57.7304C36.7305 58.0319 37.4679 58.159 38.202 58.0995V58.0781Z" fill="#31363F"/>
<path d="M65.3798 63.5029C61.4479 63.5029 58.4906 62.4611 56.5079 60.3776C54.5252 58.294 53.5362 55.2352 53.541 51.201C53.541 46.8583 54.5468 43.7353 56.5583 41.8322C58.5699 39.929 61.5103 38.9797 65.3798 38.9845C67.6413 38.9117 69.8892 39.3576 71.9472 40.2873C73.6993 41.133 75.1123 42.5374 75.9583 44.274C76.9452 46.4487 77.411 48.8192 77.3193 51.201C77.3193 55.2352 76.2895 58.294 74.23 60.3776C72.1705 62.4611 69.2204 63.5029 65.3798 63.5029ZM65.3798 58.0781C66.3871 58.1165 67.3807 57.8373 68.217 57.2808C69.0078 56.6932 69.6023 55.8848 69.9237 54.9599C70.3374 53.7501 70.5324 52.4777 70.4998 51.201C70.5496 49.8324 70.3546 48.4659 69.9237 47.1644C69.6118 46.2779 69.0018 45.5241 68.1954 45.0287C67.3312 44.5701 66.3602 44.3443 65.3798 44.3737C64.3706 44.3345 63.3711 44.5815 62.4993 45.0856C61.7193 45.5891 61.1393 46.3436 60.8574 47.2214C60.462 48.5127 60.2844 49.8597 60.3317 51.2081C60.3317 53.5147 60.7374 55.2376 61.5487 56.3766C61.9858 56.9628 62.5672 57.4288 63.2377 57.7304C63.9082 58.0319 64.6456 58.159 65.3798 58.0995V58.0781Z" fill="#31363F"/>
<path d="M88.8986 62.8409H82.0791V31.0823H88.9922L88.8986 62.8409ZM87.4584 50.1261L96.0278 39.7819H104.338L91.3758 53.3083L87.4584 50.1261ZM92.6648 47.1645L104.972 62.8267H96.2582L87.7752 51.7492L92.6648 47.1645Z" fill="#31363F"/>
<path d="M109.177 36.6423V31.4026H116.277V36.6423H109.177ZM109.321 62.8409V40.1022H116.183L116.234 62.8409H109.321Z" fill="#31363F"/>
<path d="M122.362 41.7397C123.106 41.3729 123.876 41.0611 124.666 40.8071C125.693 40.4674 126.739 40.1869 127.799 39.967C128.937 39.725 130.082 39.5256 131.234 39.3761C132.296 39.2281 133.366 39.152 134.438 39.1483C136.253 39.1048 138.061 39.3746 139.782 39.9457C141.168 40.4055 142.359 41.31 143.166 42.5157C144.025 43.9802 144.435 45.6593 144.347 47.3496V62.841H137.477V48.7165C137.482 48.1749 137.396 47.6363 137.225 47.1218C137.064 46.6273 136.783 46.1793 136.406 45.8169C136.03 45.4546 135.569 45.1889 135.065 45.043C134.379 44.8349 133.665 44.7364 132.948 44.7511C132.232 44.7532 131.52 44.8368 130.823 45.0003C130.268 45.1192 129.728 45.2958 129.21 45.5271V62.841H122.348L122.362 41.7397Z" fill="#31363F"/>
<path d="M159.37 63.5029C157.462 63.4476 155.592 62.9605 153.904 62.0791C152.362 61.2043 151.125 59.889 150.354 58.3059C149.441 56.3444 149.007 54.1986 149.086 52.0411C149.021 49.8819 149.348 47.7287 150.051 45.6836C150.586 44.1594 151.514 42.7997 152.744 41.7396C153.964 40.7658 155.392 40.0814 156.921 39.7391C158.703 39.3254 160.528 39.127 162.358 39.1482C164.066 39.1153 165.768 39.3557 167.399 39.8602C168.689 40.2486 169.85 40.9713 170.762 41.9532C171.569 42.8931 171.995 44.0954 171.957 45.3277V63.1256C171.988 64.5864 171.724 66.0387 171.179 67.3971C170.671 68.6051 169.869 69.671 168.846 70.5011C167.744 71.3713 166.475 72.013 165.116 72.3877C163.475 72.8382 161.778 73.054 160.075 73.0284C158.306 73.0544 156.538 72.909 154.797 72.5941C153.637 72.3997 152.511 72.04 151.455 71.5262V65.5532C151.916 65.7383 152.593 65.9804 153.486 66.2652C154.465 66.5863 155.466 66.8362 156.482 67.0127C157.577 67.211 158.688 67.3111 159.802 67.3117C160.946 67.3671 162.089 67.1651 163.143 66.7208C163.856 66.3894 164.433 65.8266 164.778 65.1261C165.096 64.4085 165.253 63.6313 165.239 62.8479V59.1104L166.578 60.0644C166.09 60.7568 165.497 61.3714 164.821 61.8869C164.109 62.4251 163.307 62.8348 162.452 63.0971C161.451 63.3863 160.412 63.5231 159.37 63.5029ZM161.119 58.3985C161.864 58.4034 162.606 58.3198 163.33 58.1493C164.006 57.9806 164.657 57.727 165.267 57.3947V46.8441C165.285 46.5758 165.245 46.307 165.149 46.0553C165.053 45.8037 164.905 45.575 164.713 45.3846C164.322 45.0333 163.845 44.788 163.33 44.6727C162.755 44.5508 162.168 44.4911 161.58 44.4947C160.396 44.4305 159.223 44.7505 158.239 45.406C157.402 46.0459 156.79 46.9302 156.489 47.9333C156.119 49.1204 155.939 50.3575 155.956 51.5997C155.854 53.3738 156.362 55.13 157.396 56.5831C157.825 57.1683 158.391 57.6414 159.046 57.9615C159.701 58.2816 160.425 58.4389 161.155 58.4198L161.119 58.3985Z" fill="#31363F"/>
<path d="M6.39453 21.5354V6.64917H11.1113C13.4589 6.64917 15.2232 7.27565 16.4042 8.51439C17.5852 9.75313 18.1756 11.6112 18.1756 14.0816C18.1756 16.5519 17.5852 18.41 16.4042 19.6559C15.2232 20.9018 13.4589 21.5354 11.1113 21.5354H6.39453ZM8.022 20.019H11.0033C12.9236 20.019 14.3206 19.5444 15.1944 18.5951C16.0729 17.6412 16.505 16.139 16.505 14.0887C16.505 12.0384 16.0729 10.5291 15.1944 9.58227C14.3158 8.63542 12.926 8.15843 11.0033 8.15843H8.022V20.019Z" fill="white"/>
<path d="M23.7061 21.5354V6.64917H25.3335V21.5354H23.7061Z" fill="white"/>
<path d="M37.835 21.7562C36.4948 21.8026 35.1653 21.5058 33.9752 20.8948C32.9318 20.3174 32.1095 19.4169 31.6348 18.3319C30.597 15.5938 30.597 12.5768 31.6348 9.83874C32.1143 8.76232 32.936 7.86999 33.9752 7.2972C35.1687 6.69681 36.4966 6.40533 37.835 6.45002C38.6528 6.4504 39.4684 6.5339 40.269 6.6992C41.0642 6.86119 41.8376 7.11445 42.5734 7.45383V9.12683C41.8548 8.80975 41.1164 8.53866 40.3626 8.31524C39.6011 8.08904 38.8102 7.97393 38.015 7.97352C36.9337 7.93281 35.8593 8.16043 34.8897 8.6356C34.0649 9.07522 33.4208 9.78508 33.0678 10.6432C32.6432 11.7419 32.4448 12.9134 32.4845 14.0889C32.4464 15.2689 32.6446 16.4448 33.0678 17.5488C33.4204 18.409 34.0644 19.1212 34.8897 19.5635C35.8593 20.0387 36.9337 20.2663 38.015 20.2256C38.6033 20.2242 39.1907 20.1789 39.7721 20.0904C40.3457 20.0005 40.9115 19.8672 41.4644 19.6917V15.4202H37.8638V13.8824H43.1207V20.5958C42.3057 20.9769 41.4509 21.2682 40.5715 21.4644C39.673 21.6615 38.7553 21.7594 37.835 21.7562Z" fill="white"/>
<path d="M49.1836 21.5354V6.64917H50.8111V21.5354H49.1836Z" fill="white"/>
<path d="M60.7634 21.5354V8.17267H55.4346V6.64917H67.6766V8.17267H62.3693V21.5354H60.7634Z" fill="white"/>
<path d="M69.4912 21.5354L75.497 6.64917H77.1245L83.1014 21.5354H81.3659L76.1811 8.1442L76.5196 8.10148L71.2843 21.5354H69.4912ZM72.134 16.8937L72.8542 15.3559H80.2138L80.329 16.8937H72.134Z" fill="white"/>
<path d="M87.7031 21.5354V6.64917H89.3234V19.9692H97.0647V21.5354H87.7031Z" fill="white"/>
</g>
<defs>
<clipPath id="clip0_298_4495">
<rect width="172" height="73" fill="white"/>
</clipPath>
</defs>
</svg>
